# xmcd CD database file
#
# Track frame offsets:
#	150
#	22730
#	41620
#	72315
#	113866
#	135544
#	203136
#
# Disc length: 3558 seconds
#
# Revision: 0
# Processed by: cddbd v1.4PL0 Copyright (c) Steve Scherf et al.
# Submitted via: CDex 1.51
#
DISCID=590de407
DTITLE=Klaus Bunrock - Magic Waters
DYEAR=1900
DGENRE=Salsa
TTITLE0=Magic Waters
TTITLE1=Cataract
TTITLE2=Stream
TTITLE3=Fountain Of Live
TTITLE4=Cascades
TTITLE5=Liquid Element
TTITLE6=Evolution
EXTD=
EXTT0=
EXTT1=
EXTT2=
EXTT3=
EXTT4=
EXTT5=
EXTT6=
PLAYORDER=
